# xmcd
#
# Track frame offsets:
#	150
#	13222
#	35080
#	48367
#	60610
#	73757
#	92537
#	101275
#	121342
#	138707
#	158815
#	171440
#	189717
#
# Disc length: 2750 seconds
#
# Revision: 2
# Processed by: cddbd v1.4b41PL1 Copyright (c) Steve Scherf et al.
# Submitted via: CDmax 1.7.6
#
DISCID=b80abc0d
DTITLE=Persuasions - Right Around The Corner
DYEAR=1900
DGENRE=
TTITLE0=Don't Leave Me Here To Cry
TTITLE1=Little Red Rooster
TTITLE2=The Good Ol' Days
TTITLE3=That's Heaven To Me
TTITLE4=Right Around The Corner
TTITLE5=I'm With You
TTITLE6=I Could Love You If You Let Me
TTITLE7=Come On And Save Me
TTITLE8=My Jug and I
TTITLE9=Oh, Heavenly Salvation
TTITLE10=Lucille Has Messed My Mind Up
TTITLE11=I Want To (Do Everything For You)
TTITLE12=Love Is All Around
EXTD=
EXTT0=
EXTT1=
EXTT2=
EXTT3=
EXTT4=
EXTT5=
EXTT6=
EXTT7=
EXTT8=
EXTT9=
EXTT10=
EXTT11=
EXTT12=
PLAYORDER=
